<?xml version="1.0" encoding="UTF-8"?>
<svg width="753" height="1461" version="1.1" viewBox="0 0 753 1461" xmlns="http://www.w3.org/2000/svg">
 <path fill-rule="evenodd" clip-rule="evenodd" d="M751.498 435.811C751.499 436.186 751.5 436.562 751.5 436.938V595.199V863.555V1021.82C751.5 1022.27 751.499 1022.73 751.497 1023.19C509.932 1138.28 399.108 1264.46 378.051 1458.53C377.685 1458.68 377.498 1458.75 377.498 1458.75L377.472 1458.74C356.402 1263.89 244.893 1137.45 1.50011 1022C0.998644 1022.43 0.499679 1022.86 0.00320438 1023.29C0.00106933 1022.8 0 1022.31 0 1021.82V863.555V595.199V436.938C0 436.528 0.000742342 436.118 0.00222494 435.709C0.499022 436.14 0.998314 436.57 1.50011 437C245 321.5 356.5 195 377.5 0.0010376C377.521 0.00970656 377.698 0.0813541 378.023 0.215833C399.01 194.424 509.825 320.674 751.498 435.811Z" fill="#CC9170"/>
</svg>
