<?xml version="1.0" encoding="utf-8"?>
<!-- Generator: Adobe Illustrator 21.1.0, SVG Export Plug-In . SVG Version: 6.00 Build 0)  -->
<svg version="1.1" id="Layer_1" xmlns="http://www.w3.org/2000/svg" xmlns:xlink="http://www.w3.org/1999/xlink" x="0px" y="0px"
	 viewBox="0 0 512 512" style="enable-background:new 0 0 512 512;" xml:space="preserve">
<style type="text/css">
	.st0{fill:#FFFFFF;}
</style>
<path class="st0" d="M498.9,378.4l-67.7-67.7c-17.5-17.5-45.7-17.5-63.2,0c-7.6,7.6-39.7,39.7-47.4,47.4c-6.5,6.5-52-7-105.9-60.9
	c-24-24-43.2-49.8-53.9-72.4c-9.7-20.5-8.9-31.6-7-33.5l47.4-47.4c17.4-17.4,17.4-45.8,0-63.2L133.5,13C116.1-4.4,87.7-4.4,70.3,13
	C62.8,20.6,30.6,52.8,23,60.4C-5.3,88.7-7.6,138,16.7,199.3C77.8,353.9,271,512,388.7,512c26.1,0,47.6-7.7,62.9-23l47.4-47.4
	C516.4,424.2,516.4,395.9,498.9,378.4z M110.9,35.7l67.7,67.7c5,5,5,13,0,18l-15.7,15.7L77.2,51.5L93,35.7
	C97.9,30.8,106,30.8,110.9,35.7L110.9,35.7z M324.5,465.6c-109.6-43.3-234.7-168.5-278-278c-19-47.9-19.3-86-0.8-104.4l9-9
	l85.6,85.6l-9,9C71.2,228.9,283.2,441,343.4,380.9l9-9l85.6,85.6l-9,9C410.5,484.8,372.4,484.5,324.5,465.6L324.5,465.6z M476.3,419
	l-15.7,15.7L375,349.1l15.8-15.8c5-5,13-5,18,0l67.7,67.7C481.2,406,481.2,414.1,476.3,419z"/>
<path class="st0" d="M288,201.6c12.4,0,22.4,10,22.4,22.4c0,8.8,7.2,16,16,16s16-7.2,16-16c0-30-24.4-54.4-54.4-54.4
	c-8.8,0-16,7.2-16,16S279.2,201.6,288,201.6z"/>
<path class="st0" d="M288,124.8c54.7,0,99.2,44.5,99.2,99.2c0,8.8,7.2,16,16,16s16-7.2,16-16c0-72.3-58.9-131.2-131.2-131.2
	c-8.8,0-16,7.2-16,16S279.2,124.8,288,124.8z"/>
</svg>
